<svg xmlns="http://www.w3.org/2000/svg" viewBox="0 0 664.02 180.75"><g id="Layer_2" data-name="Layer 2"><g id="Layer_1_copy" data-name="Layer 1 copy"><path d="M37,180.75c-12.58-.26-23.6-3.28-32.73-9-.9-.54-1.36-.83-2.26-1.39l-.47-.29a3,3,0,0,1-1.41-2.55V167c.15-9.36,2.42-18.17,4.54-25.7l.47-1.69a3,3,0,0,1,2.21-2.1,2.68,2.68,0,0,1,.68-.08,3,3,0,0,1,2.24,1l1.17,1.3c2.37,2.65,4.21,4.67,5.95,6.55,4.55,4.81,11.07,7.33,19.35,7.46H37a21.89,21.89,0,0,0,13.59-5.38,26.57,26.57,0,0,0,8.71-12.84C64,118.94,48.62,106.77,35.07,96c-1-.82-2-1.62-3-2.41L30.3,92.23C22.05,85.62,13.52,78.79,7.49,70.32.23,60.1-1.73,49.67,1.52,38.43,7,19.33,23.46,0,44.19,0h.33C56.77.13,67.78,3.14,77.28,8.93l2.3,1.42.46.29a3,3,0,0,1,1.41,2.54v.55c-.14,9.38-2.41,18.18-4.53,25.7l-.47,1.68a3,3,0,0,1-2.21,2.11,2.58,2.58,0,0,1-.68.08,3,3,0,0,1-2.23-1L70.16,41c-2.38-2.65-4.21-4.67-6-6.55-3-3.34-8.75-7.31-19.35-7.46h-.17a16,16,0,0,0-10,4,20.35,20.35,0,0,0-6.48,9.64c-4,13.74,10,25.74,19.2,33.68,2.31,2,4.78,4,7.39,6.13C63.22,87.3,72.73,95,79.23,104.11,87.06,115,89.27,126,86,137.68a68.12,68.12,0,0,1-15.41,27.07C62.91,173,54,178.23,44.81,180a3,3,0,0,1-1.94.71H37ZM8.44,165c7.93,4.94,17.59,7.55,28.72,7.78H38.8l1.73-.17c10.43-1,18.63-7.46,23.68-12.7a59.67,59.67,0,0,0,14.17-24.4c5.86-20.91-11.63-35.16-28.55-48.94-2.71-2.2-5.2-4.24-7.58-6.28-10.77-9.27-27-23.27-21.65-41.89a28.49,28.49,0,0,1,9-13.53A23.88,23.88,0,0,1,44.7,19.07H45c7.44.11,17.83,1.94,25.1,10.05l1.08,1.17a80,80,0,0,0,2.3-14.41l-.29-.18c-8.25-5-17.9-7.65-28.68-7.77h-.28c-9.69,0-17.2,5.46-21.8,10A54.16,54.16,0,0,0,9.15,40.63C3.41,60.52,19.61,73.49,35.27,86L37,87.43l3,2.38c7,5.57,15,11.87,20.63,19.45,7,9.36,9.06,18.66,6.31,28.42-3.79,13.46-16.94,24-29.94,24H36.7c-10.55-.16-19-3.52-25.07-10l-1.16-1.26a81.26,81.26,0,0,0-2.3,14.43Z"/><path d="M147.88,180.75c-12.23,0-24.19-4.81-32-12.84s-10.23-19.42-6.71-31.89c3.62-13.32,4.18-23.34,1.86-33.5-.83-3.66-1.91-7.39-3-11-1.85-6.4-3.75-13-4.57-19.93-1.4-11.85,1.54-22.93,4.38-33.65,2.78-10.46,5.65-21.27,4-32.19l-.17-1.11a3,3,0,0,1,.7-2.4,3,3,0,0,1,2.27-1h21a3,3,0,0,1,3,2.56l.12.82c1.87,12.54-1.21,24.15-4.19,35.38-2.65,10-5.39,20.34-4.17,30.7.74,6.27,2.56,12.57,4.31,18.66,1.07,3.71,2.18,7.54,3.07,11.43,3.31,14.48.87,27-2,37.38a12.52,12.52,0,0,0,1.67,11.1,12,12,0,0,0,9.91,4.53,21.93,21.93,0,0,0,13.61-5.31A25.37,25.37,0,0,0,169.49,136c3.62-13.31,4.19-23.33,1.87-33.49-.84-3.68-1.92-7.4-3-11-1.84-6.39-3.75-13-4.57-19.91-1.4-11.86,1.54-22.95,4.38-33.67,2.78-10.45,5.65-21.26,4-32.18l-.17-1.1a3,3,0,0,1,.7-2.4,3,3,0,0,1,2.27-1h21a3,3,0,0,1,3,2.56l.12.82C201,17.12,197.92,28.73,194.94,40c-2.65,10-5.4,20.35-4.17,30.7.74,6.25,2.55,12.55,4.31,18.65,1.07,3.72,2.18,7.57,3.07,11.44,3.3,14.48.86,27-2,37.38a66.47,66.47,0,0,1-17.35,28.92c-6.44,6.21-17,13.61-30.72,13.69h-.24ZM120.23,9.12c.65,10.83-2,21-4.66,30.84s-5.4,20.34-4.18,30.7c.74,6.26,2.56,12.56,4.32,18.65,1.07,3.72,2.18,7.56,3.06,11.44,3.31,14.48.87,27-2,37.38-2.73,9.67-1,18.27,4.76,24.25,6.24,6.43,16.31,10.43,26.29,10.43,11.22,0,20-6.23,25.45-11.46A58.33,58.33,0,0,0,188.55,136c3.62-13.31,4.18-23.34,1.87-33.49-.84-3.65-1.91-7.37-2.95-11-1.86-6.45-3.76-13.07-4.58-20-1.4-11.86,1.54-22.94,4.38-33.67,2.49-9.37,5-19,4.38-28.79H180.54c.64,10.82-2,21-4.66,30.83s-5.4,20.33-4.18,30.7c.74,6.25,2.56,12.56,4.32,18.65,1.07,3.72,2.18,7.56,3.06,11.44,3.31,14.47.87,27-2,37.38a33.42,33.42,0,0,1-11,16.44,29.86,29.86,0,0,1-18.61,7.11A20,20,0,0,1,131.24,154a20.28,20.28,0,0,1-3-18c3.63-13.3,4.19-23.33,1.87-33.48-.84-3.65-1.91-7.37-2.94-11-1.86-6.45-3.77-13.06-4.59-20-1.4-11.86,1.54-23,4.39-33.67,2.48-9.37,5-19,4.37-28.8Z"/><path d="M286.3,180.75a3,3,0,0,1-2.65-1.59l-.27-.52c-5.09-9.62-7.94-19.48-9.23-32-.17-1.53-.31-3.1-.46-4.61-.66-7-1.35-14.24-3.44-20.87-3.18-10.1-9.28-19.25-15.19-28.09-1.42-2.12-2.85-4.27-4.26-6.44.29,1.07.59,2.13.89,3.19,2.69,9.7,5.48,19.73,4.79,30.4-.54,8.4-2.66,16.27-4.7,23.89-2.89,10.79-5.62,21-4,32.06l.16,1.11a3,3,0,0,1-3,3.44H224a3,3,0,0,1-3-2.56l-.12-.82c-2-13.24,1.07-24.61,4.29-36.65,1-3.87,2.1-7.86,3-11.91,2.8-13,0-25-3.21-36.16-3.43-12.14-6.52-25.23-3.34-40,.91-4.19,2-8.28,3-12.23,3-11.27,5.85-21.88,4.12-33.49l-.16-1.11a3,3,0,0,1,3-3.44H251.2A3,3,0,0,1,253.85,4l.27.51c5,9.52,8,19.7,9.24,32,.15,1.42.29,2.87.42,4.28.68,7.11,1.38,14.47,3.5,21.25,3.16,10.1,9.28,19.23,15.19,28.05,1.48,2.22,3,4.46,4.45,6.73-.33-1.18-.65-2.37-1-3.55-2.67-9.67-5.44-19.66-4.76-30.3.55-8.45,2.68-16.35,4.74-24,2.91-10.78,5.66-21,4-32.06l-.17-1.1a3,3,0,0,1,3-3.44h21a3,3,0,0,1,3,2.56l.12.83c1.95,13.24-1.11,24.61-4.34,36.65-1.05,3.9-2.12,7.89-3,11.9-2.82,13,0,25,3.16,36.16,3.41,12.15,6.48,25.24,3.28,40-.91,4.2-2,8.29-3.07,12.25-3,11.26-5.87,21.85-4.16,33.47l.16,1.1a3,3,0,0,1-3,3.44Zm-46.81-7.92c-.67-10.94,2-21,4.63-30.73,1.95-7.25,4-14.74,4.45-22.35.61-9.34-2-18.71-4.52-27.77-2.57-9.23-5.22-18.77-4.9-28.89a3,3,0,0,1,2.55-2.87l1.88-.29a3.4,3.4,0,0,1,.45,0,3,3,0,0,1,2.83,2c3.3,9.57,9.13,18.31,14.78,26.75,6.23,9.32,12.66,19,16.18,30.14,2.34,7.44,3.07,15.09,3.77,22.49l0,.32c.13,1.39.27,2.83.41,4.24,1.1,10.52,3.36,18.93,7.28,27H300.4c-.76-11.35,2-21.45,4.82-32.1,1-3.91,2.13-7.9,3-11.91,2.82-13,0-25-3.16-36.16-3.41-12.14-6.48-25.23-3.28-40,.91-4.22,2-8.32,3.08-12.28,2.72-10.13,5.31-19.75,4.53-30.06H298.26c.66,11-2.05,21-4.68,30.73-2,7.3-4,14.82-4.49,22.45-.6,9.31,2,18.65,4.48,27.68,2.57,9.29,5.23,18.89,4.85,29.11a3,3,0,0,1-2.57,2.86l-1.87.27a2.18,2.18,0,0,1-.44,0,3,3,0,0,1-2.84-2c-3.27-9.62-9.13-18.38-14.8-26.85-6.25-9.33-12.68-18.94-16.19-30.13-2.37-7.57-3.11-15.35-3.82-22.87-.14-1.39-.27-2.82-.42-4.22-1.08-10.54-3.35-19-7.29-27H237.11c.77,11.34-1.93,21.45-4.77,32.09-1,3.88-2.11,7.89-3,11.92-2.79,13,.06,25,3.22,36.15,3.43,12.15,6.51,25.24,3.34,40-.91,4.22-2,8.32-3.07,12.28-2.71,10.14-5.28,19.75-4.48,30.06Z"/><path d="M370.07,180.75c-12.59-.26-23.6-3.28-32.74-9l-2.72-1.68a3,3,0,0,1-1.41-2.55V167c.14-9.36,2.42-18.17,4.54-25.7l.47-1.69a3,3,0,0,1,2.21-2.1,2.58,2.58,0,0,1,.68-.08,3,3,0,0,1,2.23,1l1.17,1.3c2.37,2.65,4.21,4.67,5.95,6.55,4.56,4.81,11.08,7.33,19.36,7.46h.24a21.92,21.92,0,0,0,13.6-5.38,26.55,26.55,0,0,0,8.7-12.84c4.67-16.6-10.68-28.77-24.23-39.51-1-.82-2.05-1.62-3-2.41l-1.73-1.39c-8.26-6.61-16.79-13.44-22.81-21.91-7.27-10.22-9.22-20.65-6-31.89C340.09,19.33,356.52,0,377.25,0h.33c12.25.13,23.26,3.14,32.76,8.93l2.29,1.42.47.29a3,3,0,0,1,1.41,2.54v.55c-.14,9.37-2.41,18.18-4.53,25.7l-.48,1.69a3,3,0,0,1-2.21,2.1,2.56,2.56,0,0,1-.67.08,3,3,0,0,1-2.24-1L403.21,41c-2.37-2.65-4.21-4.67-5.95-6.55-3-3.34-8.75-7.31-19.36-7.46h-.17a15.92,15.92,0,0,0-10,4,20.32,20.32,0,0,0-6.48,9.64c-4,13.74,10,25.74,19.2,33.68,2.29,2,4.74,4,7.33,6.08l.09.07c8.39,6.84,17.9,14.58,24.41,23.65,7.82,10.93,10,21.91,6.77,33.57a68.24,68.24,0,0,1-15.41,27.07C396,173,387.09,178.23,377.86,180a3,3,0,0,1-1.93.71h-5.86ZM341.5,165c7.93,4.94,17.58,7.55,28.71,7.78h1.65l1.72-.17c10.43-1,18.64-7.46,23.68-12.7a59.7,59.7,0,0,0,14.18-24.4c5.86-20.91-11.63-35.16-28.55-48.94-2.71-2.2-5.21-4.24-7.59-6.28-10.77-9.27-27-23.27-21.64-41.89a28.49,28.49,0,0,1,9-13.53,23.83,23.83,0,0,1,15.07-5.84H378c7.43.11,17.82,1.94,25.1,10.05l1.08,1.17a81.8,81.8,0,0,0,2.3-14.41l-.3-.18c-8.25-5-17.9-7.65-28.67-7.77h-.28c-9.69,0-17.21,5.46-21.8,10a54.05,54.05,0,0,0-13.26,22.66c-5.75,19.89,10.45,32.86,26.11,45.4l1.75,1.4,2.72,2.17.28.21c7,5.57,15,11.87,20.63,19.45,7,9.36,9.05,18.66,6.3,28.42-3.78,13.46-16.94,24-29.94,24h-.31c-10.54-.16-19-3.52-25.07-10l-1.15-1.25a81,81,0,0,0-2.31,14.42Z"/><path d="M440.41,180.75a3,3,0,0,1-3-2.56l-.12-.82c-2-13.24,1.07-24.62,4.29-36.66,1-3.85,2.1-7.83,3-11.9,2.8-13-.05-25-3.21-36.15-3.43-12.15-6.52-25.24-3.34-40,.91-4.21,2-8.31,3.06-12.28,3-11.22,5.84-21.83,4.11-33.44L445,5.84a3,3,0,0,1,3-3.44h20.82a3,3,0,0,1,3,2.56l.12.82c2,13.78-1.19,25.65-4.62,38.22-.42,1.54-.85,3.14-1.27,4.72-3.1,11.68-3.32,21.67-.71,32.38.75,3.11,1.68,6.31,2.57,9.4,2.4,8.32,4.86,16.83,4.95,25.82.09,9.78-2.59,19.11-5.18,28.13-.88,3.06-1.77,6.18-2.54,9.28H506.6a3,3,0,0,1,3,3.45l-.17,1.11a56.93,56.93,0,0,0,0,17.91l.17,1.08a3,3,0,0,1-3,3.47ZM501,172.82a63.14,63.14,0,0,1,0-11.17H459a3,3,0,0,1-2.94-3.58l.23-1.16c1-4.93,2.39-9.85,3.76-14.61,2.44-8.52,5-17.29,4.88-25.92-.08-7.9-2.39-15.89-4.62-23.61-.93-3.2-1.88-6.5-2.69-9.81-2.89-11.9-2.65-23.43.76-36.28.43-1.6.86-3.21,1.29-4.77,2.9-10.65,5.66-20.76,4.8-31.58H453.53c.76,11.35-1.94,21.46-4.78,32.1l0,.1c-1,3.85-2.08,7.82-2.94,11.81-2.8,13,.05,25,3.21,36.15,3.43,12.15,6.52,25.24,3.34,40-.91,4.22-2,8.31-3.07,12.28-2.71,10.14-5.28,19.75-4.48,30.06Z"/><path d="M525.24,180.75a3,3,0,0,1-3-2.56l-.12-.82c-2-13.24,1.07-24.62,4.29-36.66,1-3.85,2.1-7.83,3-11.9,2.8-13,0-25-3.21-36.15-3.44-12.15-6.52-25.24-3.34-40,.91-4.21,2-8.31,3.06-12.28,3-11.22,5.84-21.83,4.11-33.44l-.17-1.11a3,3,0,0,1,.7-2.4,3,3,0,0,1,2.27-1h21a3,3,0,0,1,3,2.56l.12.82c2,13.24-1.07,24.62-4.29,36.66-1,3.85-2.09,7.84-3,11.9-2.79,13,.06,25,3.22,36.16,3.43,12.14,6.51,25.23,3.33,40-.9,4.21-2,8.31-3.06,12.28-3,11.23-5.83,21.83-4.11,33.44l.17,1.11a3,3,0,0,1-3,3.44Zm15.52-7.93c-.77-11.35,1.93-21.46,4.78-32.1,1-3.87,2.1-7.86,3-11.91,2.8-13,0-25-3.21-36.16-3.43-12.14-6.52-25.23-3.34-40,.91-4.21,2-8.31,3.07-12.28,2.71-10.14,5.28-19.75,4.48-30.06H538.37c.76,11.35-1.94,21.46-4.78,32.11-1,3.86-2.11,7.85-3,11.9-2.79,13,.06,25,3.22,36.16,3.43,12.14,6.51,25.23,3.33,40-.9,4.21-2,8.31-3.06,12.27-2.71,10.15-5.28,19.77-4.49,30.07Z"/><path d="M582.36,180.75a3,3,0,0,1-3-2.56l-.12-.82c-2-13.24,1.06-24.62,4.28-36.66,1-3.86,2.1-7.85,3-11.9,2.79-13-.06-25-3.22-36.16-3.43-12.14-6.52-25.23-3.34-40,.91-4.21,2-8.31,3.07-12.28,3-11.22,5.83-21.83,4.1-33.44L587,5.84a3,3,0,0,1,3-3.44h28.38a71.06,71.06,0,0,1,23.59,4.54c9.22,3.66,15.56,9.11,18.85,16.21,4.9,10.55,3.24,21.74,1.63,32.56-.2,1.33-.4,2.68-.57,4-.53,3.8-.73,7.89-.92,11.84-.38,7.74-.77,15.75-3.45,23.29-2.32,6.53-7.58,12.14-14.81,15.81-6.61,3.35-14.1,5-23.55,5.28h-4.25c-.05,9.64-2.42,18.76-4.72,27.6-2.77,10.61-5.62,21.57-4,32.69l.17,1.1a3,3,0,0,1-3,3.45Zm15.48-7.92c-.68-11,2-21.3,4.6-31.3,5-19.38,4.69-24.42,4.35-29.3l-.07-1a3,3,0,0,1,.8-2.26,3,3,0,0,1,2.19-1H619c8.14-.22,14.55-1.62,20.08-4.43s9.28-6.79,10.91-11.39c2.29-6.45,2.66-13.86,3-21,.2-4.13.41-8.4,1-12.53.18-1.34.39-2.72.59-4.06,1.44-9.67,2.92-19.67-1-28.06-2.41-5.2-7.32-9.3-14.6-12.19a62.66,62.66,0,0,0-20.75-4H595.47c.77,11.35-1.94,21.46-4.78,32.11-1,3.85-2.1,7.83-3,11.9-2.78,12.93,0,24.89,3.19,36l0,.11c3.43,12.15,6.52,25.24,3.34,40-.91,4.21-2,8.31-3.06,12.27-2.72,10.14-5.29,19.76-4.49,30.07Zm8-76A3,3,0,0,1,603,94.68l-.2-.7c-3.2-11.18-6.51-22.75-4.78-35.36A143.92,143.92,0,0,1,602.55,39c1.34-4.73,2.71-9.55,3.64-14.3l.16-.78a3,3,0,0,1,2.94-2.42h9.49a43.29,43.29,0,0,1,12.85,2.36c5.63,2.1,9.3,5.45,10.89,10,2.8,7.92,1.65,16,.53,23.75q-.15,1.1-.3,2.16c-.29,2.07-.51,4.25-.73,6.36-.64,6.21-1.29,12.55-3.49,18.52-1.67,4.53-5.32,7.87-10.86,9.94a41.7,41.7,0,0,1-12.87,2.33h-9Zm7.46-67.46c-.9,4-2,7.87-3.08,11.66a138.18,138.18,0,0,0-4.38,18.65c-1.39,10.13,1.16,20.19,3.72,29.23h5c4.31-.19,14.38-1.24,16.53-7.08,1.86-5,2.46-10.89,3-16.54.23-2.2.47-4.47.77-6.69l.32-2.21c1-6.83,2-13.89-.17-20-2.08-5.92-13.08-6.89-16.51-7Z"/></g></g></svg>